<svg xmlns="http://www.w3.org/2000/svg" width="250" height="43" viewBox="0 0 250 43" version="1.1"><path d="M 31.891 5.971 C 31.227 8.187, 30.331 10, 29.901 10 C 29.470 10, 28.840 9.550, 28.500 9 C 28.160 8.450, 24.759 8, 20.941 8 L 14 8 14 20 C 14 27.827, 14.371 32, 15.066 32 C 15.652 32, 16.965 31.554, 17.984 31.008 C 19.004 30.463, 20.128 28.696, 20.482 27.081 C 20.886 25.243, 20.557 23.043, 19.600 21.194 C 18.761 19.571, 17.270 17.886, 16.287 17.450 C 14.854 16.815, 15.193 16.520, 18 15.961 C 21.215 15.320, 21.271 15.253, 18.680 15.132 C 16.358 15.023, 15.917 14.603, 16.180 12.750 C 16.468 10.727, 17.055 10.501, 22 10.507 C 25.025 10.511, 28.453 10.860, 29.618 11.283 C 31.350 11.911, 31.925 11.545, 32.774 9.276 C 33.345 7.749, 34.060 5.727, 34.363 4.782 C 34.665 3.837, 34.504 2.812, 34.005 2.503 C 33.506 2.195, 32.554 3.755, 31.891 5.971 M 52 2.321 C 52 2.562, 54.509 9.676, 57.576 18.130 C 60.643 26.583, 63.854 34.277, 64.710 35.226 C 65.567 36.176, 66.657 36.712, 67.134 36.417 C 67.610 36.123, 68 28.735, 68 20 C 68 11.265, 67.662 3.909, 67.250 3.653 C 66.838 3.397, 66.643 10.345, 66.819 19.094 C 66.994 27.842, 66.748 35, 66.272 35 C 65.796 35, 62.771 27.784, 59.549 18.963 C 56.327 10.143, 53.310 2.692, 52.845 2.404 C 52.380 2.117, 52 2.079, 52 2.321 M 88.112 6.021 C 87.176 9.146, 86.554 9.954, 85.723 9.123 C 85.105 8.505, 83.091 8, 81.246 8 C 77.892 8, 77.892 8, 78.210 21.250 C 78.385 28.538, 78.893 35.251, 79.340 36.169 C 80.082 37.694, 78.855 37.824, 65.204 37.669 C 53.602 37.538, 50.362 37.780, 50.735 38.750 C 51.086 39.667, 54.899 40, 65.025 40 C 72.621 40, 79.513 39.740, 80.339 39.423 C 81.514 38.972, 81.634 38.248, 80.887 36.105 C 80.361 34.597, 80.059 28.219, 80.216 21.932 C 80.450 12.492, 80.761 10.523, 82 10.632 C 82.825 10.705, 84.737 11.091, 86.250 11.491 C 88.411 12.061, 89 11.872, 89 10.608 C 89 9.724, 89.439 9, 89.976 9 C 90.560 9, 91.062 15.714, 91.226 25.750 C 91.500 42.500, 91.500 42.500, 94.110 42.803 C 95.805 43, 97.840 42.164, 99.913 40.419 C 101.669 38.942, 104.439 35.093, 106.067 31.867 C 107.696 28.640, 109.472 26, 110.014 26 C 110.556 26, 111 27.321, 111 28.935 C 111 30.549, 110.547 33.137, 109.994 34.685 C 109.056 37.311, 109.090 37.369, 110.494 35.559 C 111.602 34.130, 111.990 31.094, 111.960 24.059 L 111.921 14.500 106.210 25.497 C 102.070 33.470, 99.566 37.114, 97.102 38.747 C 95.233 39.986, 93.321 41, 92.852 41 C 92.383 41, 92 32.986, 92 23.191 C 92 10.079, 91.654 4.909, 90.689 3.589 C 89.501 1.965, 89.258 2.194, 88.112 6.021 M 103.225 4.011 C 102.520 5.140, 102.018 9.271, 102.042 13.736 C 102.084 21.500, 102.084 21.500, 104 18 C 105.054 16.075, 105.935 14.136, 105.958 13.691 C 105.981 13.246, 105.550 13.160, 105 13.500 C 104.415 13.862, 104 12.822, 104 10.993 C 104 9.275, 104.492 6.950, 105.093 5.827 C 105.710 4.673, 105.808 3.408, 105.318 2.918 C 104.827 2.427, 103.917 2.903, 103.225 4.011 M 149.849 12.500 C 152.023 18.550, 154.775 26.079, 155.965 29.231 C 157.156 32.383, 158.550 35.222, 159.065 35.540 C 159.579 35.858, 160 36.541, 160 37.059 C 160 37.577, 156.598 38, 152.441 38 C 147.741 38, 145.112 38.372, 145.490 38.983 C 145.857 39.577, 152.323 39.874, 161.799 39.733 C 176.896 39.509, 177.486 39.423, 177.127 37.500 C 176.923 36.400, 176.545 30.387, 176.289 24.139 C 176.011 17.380, 176.220 12.380, 176.804 11.796 C 177.446 11.154, 178.565 11.232, 180.040 12.021 C 181.795 12.961, 183.180 12.963, 186.288 12.032 C 189.518 11.064, 190.453 11.090, 191.184 12.168 C 191.681 12.901, 191.866 18.225, 191.594 24 C 191.323 29.775, 190.966 35.625, 190.800 37 C 190.503 39.471, 190.587 39.500, 198 39.500 C 205.458 39.500, 205.497 39.486, 205.031 37 C 204.773 35.625, 204.548 29.325, 204.531 23 C 204.500 11.500, 204.500 11.500, 207.947 11.500 C 210.768 11.500, 211.521 11.047, 212.097 9 C 212.484 7.625, 212.910 6.725, 213.044 7 C 213.178 7.275, 213.560 15.375, 213.894 25 C 214.493 42.306, 214.526 42.504, 216.805 42.827 C 218.123 43.014, 220.478 42.110, 222.305 40.716 C 224.062 39.376, 226.820 35.516, 228.434 32.139 C 230.047 28.763, 231.778 26, 232.280 26 C 232.782 26, 233.037 28.228, 232.847 30.952 C 232.656 33.675, 232.793 35.588, 233.151 35.202 C 233.508 34.816, 233.977 30.144, 234.192 24.820 C 234.407 19.496, 234.227 15.360, 233.791 15.629 C 233.356 15.898, 233 16.508, 233 16.985 C 233 17.462, 230.668 22.174, 227.818 27.457 C 224.286 34.003, 221.621 37.689, 219.450 39.031 C 217.698 40.114, 215.980 41, 215.632 41 C 215.284 41, 215 33.371, 215 24.047 C 215 13.312, 214.574 6.160, 213.839 4.547 C 213.201 3.146, 212.307 2, 211.851 2 C 211.396 2, 210.732 3.825, 210.375 6.055 C 209.859 9.285, 209.399 9.969, 208.113 9.419 C 207.226 9.040, 205.600 8.678, 204.500 8.615 C 202.601 8.506, 202.500 9.128, 202.500 21 C 202.500 27.875, 202.868 34.512, 203.317 35.750 C 204.113 37.940, 203.957 38, 197.460 38 C 191.445 38, 190.870 37.827, 191.642 36.250 C 192.112 35.288, 192.498 28.650, 192.499 21.500 C 192.500 9.144, 192.401 8.503, 190.500 8.565 C 189.400 8.601, 187.294 8.940, 185.819 9.317 C 183.200 9.987, 183.160 9.929, 184.069 6.758 C 184.581 4.973, 185 3.173, 185 2.757 C 185 2.340, 184.555 2, 184.012 2 C 183.468 2, 182.732 3.825, 182.375 6.055 C 181.859 9.285, 181.399 9.969, 180.113 9.419 C 179.226 9.040, 177.600 8.678, 176.500 8.615 C 174.597 8.506, 174.500 9.128, 174.501 21.500 C 174.502 28.650, 174.888 35.288, 175.358 36.250 C 176.130 37.828, 175.554 38, 169.500 38 C 163.446 38, 162.870 37.828, 163.642 36.250 C 164.112 35.288, 164.498 28.650, 164.499 21.500 C 164.500 8.500, 164.500 8.500, 161.068 8.778 C 159.181 8.932, 157.048 9.545, 156.329 10.142 C 155.610 10.738, 155.252 11.599, 155.533 12.054 C 155.814 12.508, 157.433 12.397, 159.129 11.805 C 161.559 10.958, 162.401 11.024, 163.092 12.115 C 163.575 12.877, 163.976 17.633, 163.985 22.685 C 163.993 27.737, 163.516 33.137, 162.925 34.685 C 161.949 37.241, 161.735 37.342, 160.592 35.787 C 159.899 34.844, 156.952 27.419, 154.041 19.287 C 151.131 11.154, 148.108 3.825, 147.324 3 C 146.540 2.175, 147.676 6.450, 149.849 12.500 M 233 2.500 C 233 2.775, 233.225 3, 233.500 3 C 233.775 3, 234 2.775, 234 2.500 C 234 2.225, 233.775 2, 233.500 2 C 233.225 2, 233 2.225, 233 2.500 M 245.225 4.011 C 244.409 5.318, 244 10.676, 244 20.052 C 244 28.213, 244.454 34.979, 245.079 36.148 C 246.123 38.098, 245.913 38.153, 238.660 37.832 C 232.746 37.570, 231.382 37.764, 232.203 38.750 C 232.832 39.504, 235.675 39.994, 239.372 39.985 C 242.743 39.976, 246.039 39.627, 246.697 39.208 C 247.487 38.706, 247.577 37.945, 246.963 36.974 C 246.450 36.163, 246.024 29.283, 246.015 21.684 C 246.006 13.574, 246.451 7.025, 247.093 5.827 C 247.710 4.673, 247.808 3.408, 247.318 2.918 C 246.827 2.427, 245.917 2.903, 245.225 4.011 M 2.621 21.235 L 2.743 39.500 11.621 39.812 C 16.505 39.984, 22.243 39.612, 24.373 38.985 C 27.140 38.171, 28.554 38.154, 29.323 38.923 C 29.915 39.515, 32.298 40, 34.618 40 C 36.938 40, 39.499 39.746, 40.308 39.435 C 41.179 39.101, 41.574 38.089, 41.277 36.951 C 41.001 35.896, 41.066 33.875, 41.421 32.460 C 42.003 30.138, 42.476 29.918, 46.278 30.194 C 50.084 30.470, 50.541 30.790, 51.016 33.500 C 51.368 35.507, 51.807 36.080, 52.342 35.230 C 52.782 34.532, 52.625 32.395, 51.994 30.480 C 50.874 27.089, 50.710 27, 45.544 27 C 40.243 27, 40.243 27, 39.226 31.006 C 38.636 33.334, 38.585 35.243, 39.105 35.565 C 39.597 35.869, 40 36.541, 40 37.059 C 40 37.577, 37.515 38, 34.477 38 C 28.954 38, 28.954 38, 30.477 35.676 C 31.314 34.398, 33.125 30.044, 34.500 26.001 C 35.875 21.958, 36.968 18.391, 36.929 18.075 C 36.891 17.759, 35.957 19.525, 34.854 22 C 32.850 26.500, 32.850 26.500, 31.578 23.500 C 30.879 21.849, 29.529 19.854, 28.578 19.065 C 27.233 17.949, 27.335 18.453, 29.033 21.331 C 30.638 24.052, 31.051 25.913, 30.593 28.356 C 30.250 30.184, 28.875 32.708, 27.538 33.965 C 26.200 35.221, 23.170 36.624, 20.803 37.081 C 18.436 37.539, 13.414 37.932, 9.643 37.956 C 3.449 37.996, 2.868 37.831, 3.632 36.250 C 4.098 35.288, 4.617 28.200, 4.786 20.500 C 5.012 10.199, 4.750 6.034, 3.796 4.735 C 2.719 3.269, 2.520 6.055, 2.621 21.235 M 39.015 4.191 C 39.024 4.911, 39.467 6.175, 40 7 C 40.788 8.219, 40.972 8.090, 40.985 6.309 C 40.993 5.104, 40.550 3.840, 40 3.500 C 39.450 3.160, 39.007 3.471, 39.015 4.191 M 110 3.500 C 110 3.775, 110.225 4, 110.500 4 C 110.775 4, 111 3.775, 111 3.500 C 111 3.225, 110.775 3, 110.500 3 C 110.225 3, 110 3.225, 110 3.500 M 121.983 5.032 C 121.303 6.303, 121.013 12.204, 121.210 20.782 C 121.383 28.327, 121.905 35.288, 122.369 36.250 C 123.134 37.834, 122.521 38, 115.907 38 C 110.884 38, 108.923 38.323, 109.632 39.032 C 110.263 39.663, 115.493 39.955, 123.082 39.782 C 135.500 39.500, 135.500 39.500, 135.186 36.805 C 135.013 35.322, 135.366 33.185, 135.971 32.055 C 136.752 30.595, 138.063 30, 140.500 30 C 142.949 30, 144.248 30.594, 145.042 32.078 C 145.654 33.221, 145.868 34.909, 145.518 35.828 C 145.031 37.107, 145.158 37.225, 146.059 36.331 C 146.886 35.512, 146.968 34.019, 146.336 31.331 C 145.446 27.551, 145.365 27.496, 140.212 27.198 C 135.296 26.913, 134.928 27.059, 133.922 29.698 C 133.335 31.239, 133.101 33.737, 133.402 35.250 C 133.941 37.955, 133.868 38, 128.975 38 C 126.239 38, 124 37.640, 124 37.200 C 124 36.760, 124.447 35.953, 124.994 35.406 C 125.540 34.860, 127.338 30.417, 128.988 25.534 C 130.639 20.651, 131.814 16.480, 131.599 16.266 C 131.384 16.051, 129.896 19.813, 128.292 24.625 C 126.688 29.438, 124.816 33.561, 124.132 33.789 C 123.171 34.110, 122.973 31.178, 123.259 20.852 C 123.463 13.508, 123.990 6.488, 124.431 5.250 C 124.945 3.809, 124.844 3, 124.152 3 C 123.557 3, 122.581 3.914, 121.983 5.032 M 133.881 6.219 C 134.342 8.996, 134.482 9.136, 134.797 7.135 C 135.002 5.834, 134.757 4.357, 134.253 3.853 C 133.698 3.298, 133.552 4.231, 133.881 6.219 M 155.624 4.539 C 155.281 5.432, 155.039 6.914, 155.086 7.832 C 155.133 8.749, 155.568 8.173, 156.053 6.550 C 156.537 4.928, 156.779 3.446, 156.590 3.257 C 156.402 3.068, 155.966 3.645, 155.624 4.539 M 225.035 4.934 C 224.466 5.998, 224.022 10.386, 224.050 14.684 L 224.100 22.500 228.114 14.647 C 230.321 10.328, 231.944 6.611, 231.720 6.387 C 231.496 6.163, 230.499 7.784, 229.505 9.990 C 228.510 12.195, 227.315 14, 226.848 14 C 226.382 14, 226 12.677, 226 11.059 C 226 9.441, 226.396 7.873, 226.879 7.575 C 227.363 7.276, 227.996 6.124, 228.286 5.016 C 228.625 3.719, 228.324 3, 227.442 3 C 226.687 3, 225.605 3.870, 225.035 4.934 M 232 4.500 C 232 4.775, 232.225 5, 232.500 5 C 232.775 5, 233 4.775, 233 4.500 C 233 4.225, 232.775 4, 232.500 4 C 232.225 4, 232 4.225, 232 4.500 M 109 5.500 C 109 5.775, 109.225 6, 109.500 6 C 109.775 6, 110 5.775, 110 5.500 C 110 5.225, 109.775 5, 109.500 5 C 109.225 5, 109 5.225, 109 5.500 M 108 7.500 C 108 7.775, 108.225 8, 108.500 8 C 108.775 8, 109 7.775, 109 7.500 C 109 7.225, 108.775 7, 108.500 7 C 108.225 7, 108 7.225, 108 7.500 M 39 10 C 39 10.733, 39.300 11.033, 39.667 10.667 C 40.033 10.300, 40.033 9.700, 39.667 9.333 C 39.300 8.967, 39 9.267, 39 10 M 107 9.500 C 107 9.775, 107.225 10, 107.500 10 C 107.775 10, 108 9.775, 108 9.500 C 108 9.225, 107.775 9, 107.500 9 C 107.225 9, 107 9.225, 107 9.500 M 133 11 C 133 11.733, 133.300 12.033, 133.667 11.667 C 134.033 11.300, 134.033 10.700, 133.667 10.333 C 133.300 9.967, 133 10.267, 133 11 M 106 11.500 C 106 11.775, 106.225 12, 106.500 12 C 106.775 12, 107 11.775, 107 11.500 C 107 11.225, 106.775 11, 106.500 11 C 106.225 11, 106 11.225, 106 11.500 M 38 13 C 38 13.733, 38.300 14.033, 38.667 13.667 C 39.033 13.300, 39.033 12.700, 38.667 12.333 C 38.300 11.967, 38 12.267, 38 13 M 43.777 17.018 C 42.184 22, 42.184 22, 45.531 22 C 48.879 22, 48.879 22, 47.294 17.250 C 46.423 14.637, 45.634 12.396, 45.540 12.268 C 45.447 12.141, 44.653 14.278, 43.777 17.018 M 132 14 C 132 14.733, 132.300 15.033, 132.667 14.667 C 133.033 14.300, 133.033 13.700, 132.667 13.333 C 132.300 12.967, 132 13.267, 132 14 M 138.158 16.866 C 137.521 18.992, 137 21.017, 137 21.366 C 137 21.715, 138.380 22, 140.067 22 C 142.789 22, 143.056 21.747, 142.434 19.750 C 142.048 18.512, 141.354 16.488, 140.891 15.250 C 140.428 14.012, 139.885 13, 139.683 13 C 139.481 13, 138.795 14.740, 138.158 16.866 M 37 16 C 37 16.733, 37.300 17.033, 37.667 16.667 C 38.033 16.300, 38.033 15.700, 37.667 15.333 C 37.300 14.967, 37 15.267, 37 16 M 22.333 16.667 C 22.700 17.033, 23.300 17.033, 23.667 16.667 C 24.033 16.300, 23.733 16, 23 16 C 22.267 16, 21.967 16.300, 22.333 16.667 M 25 17.500 C 25 17.775, 25.225 18, 25.500 18 C 25.775 18, 26 17.775, 26 17.500 C 26 17.225, 25.775 17, 25.500 17 C 25.225 17, 25 17.225, 25 17.500 M 16 25.500 C 16 30.973, 16.125 31.304, 17.625 29.804 C 18.519 28.910, 19.250 26.973, 19.250 25.500 C 19.250 24.027, 18.519 22.090, 17.625 21.196 C 16.125 19.696, 16 20.027, 16 25.500" stroke="none" fill="#465366" fill-rule="evenodd"/><path d="M 3.531 4.407 C 4.818 6.372, 5.050 9.353, 4.792 20.657 C 4.618 28.270, 4.095 35.288, 3.631 36.250 C 2.868 37.831, 3.450 37.996, 9.643 37.956 C 13.414 37.932, 18.436 37.539, 20.803 37.081 C 23.170 36.624, 26.200 35.221, 27.538 33.965 C 28.875 32.708, 30.241 30.232, 30.573 28.462 C 30.964 26.378, 30.593 24.114, 29.522 22.043 C 28.567 20.195, 26.429 18.242, 24.466 17.421 C 22.595 16.640, 19.587 16.010, 17.782 16.022 C 14.515 16.044, 14.510 16.053, 16.633 17.772 C 17.806 18.723, 19.299 20.539, 19.950 21.809 C 20.611 23.099, 20.847 25.419, 20.485 27.067 C 20.129 28.689, 19.004 30.463, 17.984 31.008 C 16.965 31.554, 15.652 32, 15.066 32 C 14.371 32, 14 27.827, 14 20 L 14 8 20.941 8 C 24.759 8, 28.160 8.450, 28.500 9 C 28.840 9.550, 29.493 10, 29.951 10 C 30.409 10, 31.055 8.917, 31.387 7.593 C 31.720 6.269, 32.267 4.469, 32.603 3.593 C 33.146 2.178, 31.472 2, 17.584 2 C 1.954 2, 1.954 2, 3.531 4.407 M 40.129 3.835 C 41.054 5.316, 40.454 8.166, 37.025 18.585 C 34.687 25.688, 31.940 32.962, 30.921 34.750 C 29.067 38, 29.067 38, 34.534 38 C 37.540 38, 40 37.577, 40 37.059 C 40 36.541, 39.597 35.869, 39.105 35.565 C 38.585 35.243, 38.636 33.334, 39.226 31.006 C 40.243 27, 40.243 27, 45.544 27 C 50.741 27, 50.868 27.070, 52.030 30.592 C 52.898 33.220, 52.919 34.481, 52.108 35.292 C 51.499 35.901, 51 36.780, 51 37.244 C 51 37.709, 57.551 38.010, 65.557 37.913 C 78.597 37.757, 80.031 37.570, 79.321 36.119 C 78.885 35.229, 78.385 28.538, 78.210 21.250 C 77.892 8, 77.892 8, 81.246 8 C 83.091 8, 85.084 8.484, 85.676 9.076 C 86.443 9.843, 87.073 9.228, 87.876 6.927 C 88.494 5.153, 89 3.319, 89 2.851 C 89 2.383, 83.735 2, 77.300 2 C 68.200 2, 65.867 2.267, 66.800 3.200 C 67.632 4.032, 68 9.231, 68 20.141 C 68 28.799, 67.610 36.123, 67.134 36.417 C 66.657 36.712, 65.565 36.176, 64.706 35.226 C 63.847 34.277, 60.581 26.413, 57.447 17.750 L 51.749 2 45.366 2 C 39.424 2, 39.062 2.127, 40.129 3.835 M 90.965 3.934 C 91.566 5.057, 92 13.238, 92 23.434 C 92 33.095, 92.383 41, 92.852 41 C 93.321 41, 95.233 39.986, 97.102 38.747 C 99.566 37.114, 102.070 33.470, 106.210 25.497 L 111.921 14.500 111.960 24.027 C 111.990 31.083, 111.596 34.132, 110.443 35.777 C 108.887 38, 108.887 38, 116.050 38 C 122.528 38, 123.133 37.832, 122.369 36.250 C 121.905 35.288, 121.382 28.270, 121.208 20.657 C 120.950 9.353, 121.182 6.372, 122.469 4.407 C 124.046 2, 124.046 2, 117.671 2 C 111.297 2, 111.297 2, 106.723 11.750 L 102.149 21.500 102.074 13.309 C 102.033 8.804, 102.450 4.840, 103 4.500 C 103.550 4.160, 104 3.459, 104 2.941 C 104 2.423, 100.834 2, 96.965 2 C 90.319 2, 89.987 2.107, 90.965 3.934 M 134.192 3.936 C 135.279 5.677, 134.777 8.030, 130.666 20.464 C 128.029 28.437, 125.450 35.222, 124.936 35.540 C 124.421 35.858, 124 36.541, 124 37.059 C 124 37.577, 126.239 38, 128.975 38 C 133.868 38, 133.941 37.955, 133.402 35.250 C 133.101 33.737, 133.335 31.239, 133.922 29.698 C 134.927 27.061, 135.298 26.913, 140.186 27.198 C 145.196 27.489, 145.414 27.625, 146.282 30.990 C 146.878 33.304, 146.811 35.073, 146.082 36.240 C 145.070 37.861, 145.574 38, 152.492 38 C 156.621 38, 160 37.640, 160 37.200 C 160 36.760, 159.498 35.898, 158.884 35.284 C 158.270 34.670, 155.161 27.043, 151.974 18.334 L 146.180 2.500 139.552 2.203 C 133.113 1.915, 132.961 1.964, 134.192 3.936 M 156.561 4.750 C 156.200 6.263, 155.636 8.396, 155.308 9.492 C 154.811 11.151, 154.956 11.281, 156.174 10.271 C 156.978 9.603, 159.181 8.932, 161.068 8.778 C 164.500 8.500, 164.500 8.500, 164.499 21.500 C 164.498 28.650, 164.112 35.288, 163.642 36.250 C 162.870 37.828, 163.446 38, 169.500 38 C 175.548 38, 176.131 37.826, 175.373 36.250 C 174.910 35.288, 174.387 28.758, 174.210 21.740 C 173.944 11.199, 174.145 8.881, 175.366 8.413 C 176.179 8.101, 177.817 8.367, 179.008 9.004 C 180.198 9.641, 181.298 10.013, 181.453 9.831 C 181.608 9.649, 182.040 7.813, 182.413 5.750 C 183.091 2, 183.091 2, 170.154 2 C 157.217 2, 157.217 2, 156.561 4.750 M 184.230 5.992 C 183.218 9.980, 183.219 9.983, 185.858 9.307 C 187.311 8.935, 189.400 8.601, 190.500 8.565 C 192.401 8.503, 192.500 9.144, 192.499 21.500 C 192.498 28.650, 192.112 35.288, 191.642 36.250 C 190.870 37.828, 191.446 38, 197.500 38 C 203.537 38, 204.132 37.823, 203.403 36.250 C 202.956 35.288, 202.423 28.762, 202.216 21.749 C 201.903 11.094, 202.088 8.904, 203.342 8.422 C 204.168 8.105, 205.817 8.367, 207.008 9.004 C 208.198 9.641, 209.298 10.013, 209.453 9.831 C 209.608 9.649, 210.040 7.813, 210.413 5.750 C 211.091 2, 211.091 2, 198.167 2 C 185.243 2, 185.243 2, 184.230 5.992 M 213.642 3.750 C 214.112 4.713, 214.630 13.487, 214.792 23.250 C 214.954 33.012, 215.352 41, 215.676 41 C 215.999 41, 217.698 40.114, 219.450 39.031 C 221.621 37.689, 224.286 34.003, 227.818 27.457 C 230.668 22.174, 233 17.462, 233 16.985 C 233 16.508, 233.356 15.898, 233.791 15.629 C 234.227 15.360, 234.407 19.496, 234.192 24.820 C 233.977 30.144, 233.396 34.928, 232.901 35.450 C 232.405 35.973, 232 36.760, 232 37.200 C 232 37.640, 235.166 38, 239.035 38 C 245.681 38, 246.013 37.893, 245.035 36.066 C 244.458 34.987, 244 27.712, 244 19.625 C 244 11.032, 244.408 4.866, 245 4.500 C 245.550 4.160, 246 3.459, 246 2.941 C 246 2.423, 243.333 2, 240.073 2 C 234.146 2, 234.146 2, 229.158 12.250 L 224.170 22.500 224.085 14.473 C 224.024 8.715, 224.440 5.817, 225.557 4.223 C 227.113 2, 227.113 2, 219.950 2 C 213.468 2, 212.867 2.167, 213.642 3.750 M 43.777 17.018 C 42.184 22, 42.184 22, 45.531 22 C 48.879 22, 48.879 22, 47.294 17.250 C 46.423 14.637, 45.634 12.396, 45.540 12.268 C 45.447 12.141, 44.653 14.278, 43.777 17.018 M 138.158 16.866 C 137.521 18.992, 137 21.017, 137 21.366 C 137 21.715, 138.380 22, 140.067 22 C 142.789 22, 143.056 21.747, 142.434 19.750 C 142.048 18.512, 141.354 16.488, 140.891 15.250 C 140.428 14.012, 139.885 13, 139.683 13 C 139.481 13, 138.795 14.740, 138.158 16.866" stroke="none" fill="#b92b32" fill-rule="evenodd"/></svg>